<!DOCTYPE svg PUBLIC "-//W3C//DTD SVG 1.1//EN" "http://www.w3.org/Graphics/SVG/1.1/DTD/svg11.dtd">
<!-- Uploaded to: SVG Repo, www.svgrepo.com, Transformed by: SVG Repo Mixer Tools -->
<svg width="215px" height="215px" viewBox="-3.84 -3.84 23.68 23.68" xmlns="http://www.w3.org/2000/svg" fill="none">
<g id="SVGRepo_bgCarrier" stroke-width="0">
<path transform="translate(-3.84, -3.84), scale(1.48)" fill="#f5f5f5" d="M9.166.33a2.25 2.25 0 00-2.332 0l-5.25 3.182A2.25 2.25 0 00.5 5.436v5.128a2.25 2.25 0 001.084 1.924l5.25 3.182a2.25 2.25 0 002.332 0l5.25-3.182a2.25 2.25 0 001.084-1.924V5.436a2.25 2.25 0 00-1.084-1.924L9.166.33z" strokewidth="0"/>
</g>
<g id="SVGRepo_tracerCarrier" stroke-linecap="round" stroke-linejoin="round" stroke="#CCCCCC" stroke-width="1.6320000000000001">
<path fill="#60e6b3" d="M8 1h5.658l-3.98 5.766H15L9.34 15H3.683l2.284-3.16.357-.504H1L8 1z"/>
</g>
<g id="SVGRepo_iconCarrier">
<path fill="#60e6b3" d="M8 1h5.658l-3.98 5.766H15L9.34 15H3.683l2.284-3.16.357-.504H1L8 1z"/>
</g>
</svg>