<!DOCTYPE svg PUBLIC "-//W3C//DTD SVG 1.1//EN" "http://www.w3.org/Graphics/SVG/1.1/DTD/svg11.dtd">

<!-- Uploaded to: SVG Repo, www.svgrepo.com, Transformed by: SVG Repo Mixer Tools -->
<svg width="212px" height="212px" viewBox="-4.16 -4.16 24.32 24.32" xmlns="http://www.w3.org/2000/svg" fill="none" stroke="#000000" stroke-width="0.11200000000000002">

<g id="SVGRepo_bgCarrier" stroke-width="0">

<path transform="translate(-4.16, -4.16), scale(1.52)" fill="#f0f0f0" d="M9.166.33a2.25 2.25 0 00-2.332 0l-5.25 3.182A2.25 2.25 0 00.5 5.436v5.128a2.25 2.25 0 001.084 1.924l5.25 3.182a2.25 2.25 0 002.332 0l5.25-3.182a2.25 2.25 0 001.084-1.924V5.436a2.25 2.25 0 00-1.084-1.924L9.166.33z" strokewidth="0"/>

</g>

<g id="SVGRepo_tracerCarrier" stroke-linecap="round" stroke-linejoin="round" stroke="#b2dce6" stroke-width="2.304">

<path fill="#52e55c" d="M8 1h5.658l-3.98 5.766H15L9.34 15H3.683l2.284-3.16.357-.504H1L8 1z"/>

</g>

<g id="SVGRepo_iconCarrier">

<path fill="#52e55c" d="M8 1h5.658l-3.98 5.766H15L9.34 15H3.683l2.284-3.16.357-.504H1L8 1z"/>

</g>

</svg>